<svg width="685" height="685" viewBox="0 0 685 685" fill="none" xmlns="http://www.w3.org/2000/svg">
<rect width="685" height="685" rx="342.5" fill="#FFB800"/>
<path fill-rule="evenodd" clip-rule="evenodd" d="M344.342 36.0054C343.729 36.0018 343.115 36 342.5 36C183.776 36 53.2323 156.65 37.5741 311.244C41.8513 304.805 49.1444 300.731 57.1785 300.731H233.074L322.711 51.5659C326.017 42.3762 334.639 36.2137 344.342 36.0054ZM36.0969 334.719C36.0324 337.305 36 339.898 36 342.5C36 432.432 74.7323 513.317 136.425 569.385L185.258 433.645L44.5465 344.117C40.8292 341.752 37.9575 338.473 36.0969 334.719ZM175.572 599.598C223.601 630.846 280.93 649 342.5 649C390.3 649 435.544 638.058 475.864 618.542L225.958 459.54L175.572 599.598ZM537.931 578.623C604.517 523.45 647.382 440.65 648.955 347.795H463.074L537.931 578.623ZM646.178 300.731C625.947 152.259 499.391 37.6099 345.744 36.0168C355.589 36.388 364.187 42.8657 367.237 52.2726L447.811 300.731H646.178ZM138 347.795H216.143L201.588 388.253L138 347.795ZM266.159 347.795L242.288 414.148L485.246 568.73L413.598 347.795H266.159ZM283.09 300.731H398.335L343.699 132.255L283.09 300.731Z" fill="#000E41"/>
</svg>
